<?xml version="1.0" standalone="no"?>
<!DOCTYPE svg PUBLIC "-//W3C//DTD SVG 20010904//EN"
 "http://www.w3.org/TR/2001/REC-SVG-20010904/DTD/svg10.dtd">
<svg version="1.0" xmlns="http://www.w3.org/2000/svg"
 width="256.000000pt" height="256.000000pt" viewBox="0 0 256.000000 256.000000"
 preserveAspectRatio="xMidYMid meet">

<g transform="translate(0.000000,256.000000) scale(0.100000,-0.100000)"
fill="#000000" stroke="none">
<path d="M1500 2083 c-35 -12 -74 -44 -180 -152 -75 -76 -166 -175 -204 -222
-144 -179 -303 -493 -412 -813 -40 -118 -45 -157 -14 -111 77 111 299 494 410
705 144 273 172 320 239 392 72 78 122 108 179 108 119 0 136 -165 72 -690
-12 -91 -23 -172 -25 -180 -11 -39 -35 -326 -30 -354 18 -89 49 -115 92 -74
38 35 73 112 162 357 45 122 89 237 97 253 9 16 13 32 10 36 -14 13 -58 -47
-141 -193 -49 -85 -89 -154 -91 -152 -1 1 6 65 16 142 44 324 49 652 15 786
-39 150 -95 197 -195 162z"/>
</g>
</svg>
